<?xml version="1.0" encoding="UTF-8" standalone="no"?>
<!-- Created with Inkscape (http://www.inkscape.org/) -->

<svg
   xmlns:dc="http://purl.org/dc/elements/1.1/"
   xmlns:cc="http://creativecommons.org/ns#"
   xmlns:rdf="http://www.w3.org/1999/02/22-rdf-syntax-ns#"
   xmlns:svg="http://www.w3.org/2000/svg"
   xmlns="http://www.w3.org/2000/svg"
   xmlns:sodipodi="http://sodipodi.sourceforge.net/DTD/sodipodi-0.dtd"
   xmlns:inkscape="http://www.inkscape.org/namespaces/inkscape"
   width="240"
   height="20"
   viewBox="0 0 52.916665 5.2916668"
   version="1.1"
   id="svg8"
   sodipodi:docname="StarRowTransparentCancel.svg"
   inkscape:version="0.92.1 r15371">
  <defs
     id="defs2" />
  <sodipodi:namedview
     id="base"
     pagecolor="#ffffff"
     bordercolor="#666666"
     borderopacity="1.0"
     inkscape:pageopacity="0.0"
     inkscape:pageshadow="2"
     inkscape:zoom="11.313709"
     inkscape:cx="77.455568"
     inkscape:cy="33.80201"
     inkscape:document-units="mm"
     inkscape:current-layer="layer1"
     showgrid="false"
     units="px"
     inkscape:window-width="3440"
     inkscape:window-height="1377"
     inkscape:window-x="-8"
     inkscape:window-y="-8"
     inkscape:window-maximized="1"
     inkscape:pagecheckerboard="true" />
  <metadata
     id="metadata5">
    <rdf:RDF>
      <cc:Work
         rdf:about="">
        <dc:format>image/svg+xml</dc:format>
        <dc:type
           rdf:resource="http://purl.org/dc/dcmitype/StillImage" />
        <dc:title></dc:title>
      </cc:Work>
    </rdf:RDF>
  </metadata>
  <g
     inkscape:label="Layer 1"
     inkscape:groupmode="layer"
     id="layer1"
     transform="translate(0,-291.70832)">
    <path
       style="stroke-width:0.26691887;fill:#ffffff"
       d="M 0 0 L 0 7.6386719 L 7.6816406 7.7011719 L 10 0 L 0 0 z M 10 0 L 12.318359 7.7011719 L 20 7.6386719 L 27.681641 7.7011719 L 30 0 L 10 0 z M 30 0 L 32.318359 7.7011719 L 40 7.6386719 L 47.681641 7.7011719 L 50 0 L 30 0 z M 50 0 L 52.318359 7.7011719 L 60 7.6386719 L 67.681641 7.7011719 L 70 0 L 50 0 z M 70 0 L 72.318359 7.7011719 L 80 7.6386719 L 87.681641 7.7011719 L 90 0 L 70 0 z M 90 0 L 92.318359 7.7011719 L 100 7.6386719 L 107.68164 7.7011719 L 110 0 L 90 0 z M 110 0 L 112.31836 7.7011719 L 120 7.6386719 L 127.68164 7.7011719 L 130 0 L 110 0 z M 130 0 L 132.31836 7.7011719 L 140 7.6386719 L 147.68164 7.7011719 L 150 0 L 130 0 z M 150 0 L 152.31836 7.7011719 L 160 7.6386719 L 167.68164 7.7011719 L 170 0 L 150 0 z M 170 0 L 172.31836 7.7011719 L 180 7.6386719 L 187.68164 7.7011719 L 190 0 L 170 0 z M 190 0 L 192.31836 7.7011719 L 200 7.6386719 L 200 0 L 190 0 z M 200 7.6386719 L 193.75 12.337891 L 196.17969 20 L 200 20 L 200 7.6386719 z M 196.17969 20 L 190 15.201172 L 183.82031 20 L 196.17969 20 z M 183.82031 20 L 186.25 12.337891 L 180 7.6386719 L 173.75 12.337891 L 176.17969 20 L 183.82031 20 z M 176.17969 20 L 170 15.201172 L 163.82031 20 L 176.17969 20 z M 163.82031 20 L 166.25 12.337891 L 160 7.6386719 L 153.75 12.337891 L 156.17969 20 L 163.82031 20 z M 156.17969 20 L 150 15.201172 L 143.82031 20 L 156.17969 20 z M 143.82031 20 L 146.25 12.337891 L 140 7.6386719 L 133.75 12.337891 L 136.17969 20 L 143.82031 20 z M 136.17969 20 L 130 15.201172 L 123.82031 20 L 136.17969 20 z M 123.82031 20 L 126.25 12.337891 L 120 7.6386719 L 113.75 12.337891 L 116.17969 20 L 123.82031 20 z M 116.17969 20 L 110 15.201172 L 103.82031 20 L 116.17969 20 z M 103.82031 20 L 106.25 12.337891 L 100 7.6386719 L 93.75 12.337891 L 96.179688 20 L 103.82031 20 z M 96.179688 20 L 90 15.201172 L 83.820312 20 L 96.179688 20 z M 83.820312 20 L 86.25 12.337891 L 80 7.6386719 L 73.75 12.337891 L 76.179688 20 L 83.820312 20 z M 76.179688 20 L 70 15.201172 L 63.820312 20 L 76.179688 20 z M 63.820312 20 L 66.25 12.337891 L 60 7.6386719 L 53.75 12.337891 L 56.179688 20 L 63.820312 20 z M 56.179688 20 L 50 15.201172 L 43.820312 20 L 56.179688 20 z M 43.820312 20 L 46.25 12.337891 L 40 7.6386719 L 33.75 12.337891 L 36.179688 20 L 43.820312 20 z M 36.179688 20 L 30 15.201172 L 23.820312 20 L 36.179688 20 z M 23.820312 20 L 26.25 12.337891 L 20 7.6386719 L 13.75 12.337891 L 16.179688 20 L 23.820312 20 z M 16.179688 20 L 10 15.201172 L 3.8203125 20 L 16.179688 20 z M 3.8203125 20 L 6.25 12.337891 L 0 7.6386719 L 0 20 L 3.8203125 20 z "
       id="path3686"
       transform="matrix(0.26458333,0,0,0.26458333,0,291.70832)" />
    <rect
       style="fill:#ffffff;fill-opacity:1;stroke:none;stroke-width:0.26458332;stroke-opacity:1"
       id="rect5174"
       width="5.2916665"
       height="5.2916665"
       x="-5.2916665"
       y="291.70831" />
    <g
       id="g4629"
       transform="matrix(0.01046598,0,0,0.01046598,-4.902773,292.14696)"
       style="fill:#fb0000;fill-opacity:1">
      <path
         id="path4574"
         d="M 213.333,0 C 95.514,0 0,95.514 0,213.333 c 0,117.819 95.514,213.333 213.333,213.333 117.819,0 213.333,-95.514 213.333,-213.333 C 426.666,95.514 331.153,0 213.333,0 Z m 117.662,276.689 -54.302,54.306 -63.36,-63.356 -63.36,63.36 -54.302,-54.31 63.356,-63.356 -63.356,-63.36 54.302,-54.302 63.36,63.356 63.36,-63.356 54.302,54.302 -63.356,63.36 z"
         style="fill:#fb0000;fill-opacity:1"
         inkscape:connector-curvature="0" />
      <g
         id="g4576"
         style="fill:#fb0000;fill-opacity:1" />
      <g
         id="g4578"
         style="fill:#fb0000;fill-opacity:1" />
      <g
         id="g4580"
         style="fill:#fb0000;fill-opacity:1" />
      <g
         id="g4582"
         style="fill:#fb0000;fill-opacity:1" />
      <g
         id="g4584"
         style="fill:#fb0000;fill-opacity:1" />
      <g
         id="g4586"
         style="fill:#fb0000;fill-opacity:1" />
      <g
         id="g4588"
         style="fill:#fb0000;fill-opacity:1" />
      <g
         id="g4590"
         style="fill:#fb0000;fill-opacity:1" />
      <g
         id="g4592"
         style="fill:#fb0000;fill-opacity:1" />
      <g
         id="g4594"
         style="fill:#fb0000;fill-opacity:1" />
      <g
         id="g4596"
         style="fill:#fb0000;fill-opacity:1" />
      <g
         id="g4598"
         style="fill:#fb0000;fill-opacity:1" />
      <g
         id="g4600"
         style="fill:#fb0000;fill-opacity:1" />
      <g
         id="g4602"
         style="fill:#fb0000;fill-opacity:1" />
      <g
         id="g4604"
         style="fill:#fb0000;fill-opacity:1" />
    </g>
  </g>
</svg>
