<?xml version="1.0" encoding="UTF-8" standalone="no"?>
<!-- Created with Inkscape (http://www.inkscape.org/) -->

<svg
   xmlns:dc="http://purl.org/dc/elements/1.1/"
   xmlns:cc="http://creativecommons.org/ns#"
   xmlns:rdf="http://www.w3.org/1999/02/22-rdf-syntax-ns#"
   xmlns:svg="http://www.w3.org/2000/svg"
   xmlns="http://www.w3.org/2000/svg"
   xmlns:sodipodi="http://sodipodi.sourceforge.net/DTD/sodipodi-0.dtd"
   xmlns:inkscape="http://www.inkscape.org/namespaces/inkscape"
   width="200"
   height="20"
   viewBox="0 0 52.916665 5.2916668"
   version="1.1"
   id="svg8"
   sodipodi:docname="StarRowTransparent.svg"
   inkscape:version="0.92.1 r15371">
  <defs
     id="defs2" />
  <sodipodi:namedview
     id="base"
     pagecolor="#ffffff"
     bordercolor="#666666"
     borderopacity="1.0"
     inkscape:pageopacity="0.0"
     inkscape:pageshadow="2"
     inkscape:zoom="32"
     inkscape:cx="32.979017"
     inkscape:cy="8.5612863"
     inkscape:document-units="mm"
     inkscape:current-layer="layer1"
     showgrid="false"
     units="px"
     inkscape:window-width="3440"
     inkscape:window-height="1377"
     inkscape:window-x="-8"
     inkscape:window-y="-8"
     inkscape:window-maximized="1"
     inkscape:pagecheckerboard="true" />
  <metadata
     id="metadata5">
    <rdf:RDF>
      <cc:Work
         rdf:about="">
        <dc:format>image/svg+xml</dc:format>
        <dc:type
           rdf:resource="http://purl.org/dc/dcmitype/StillImage" />
        <dc:title></dc:title>
      </cc:Work>
    </rdf:RDF>
  </metadata>
  <g
     inkscape:label="Layer 1"
     inkscape:groupmode="layer"
     id="layer1"
     transform="translate(0,-291.70832)">
    <path
       style="stroke-width:0.26691887;fill:#ffffff"
       d="M 0 0 L 0 7.6386719 L 7.6816406 7.7011719 L 10 0 L 0 0 z M 10 0 L 12.318359 7.7011719 L 20 7.6386719 L 27.681641 7.7011719 L 30 0 L 10 0 z M 30 0 L 32.318359 7.7011719 L 40 7.6386719 L 47.681641 7.7011719 L 50 0 L 30 0 z M 50 0 L 52.318359 7.7011719 L 60 7.6386719 L 67.681641 7.7011719 L 70 0 L 50 0 z M 70 0 L 72.318359 7.7011719 L 80 7.6386719 L 87.681641 7.7011719 L 90 0 L 70 0 z M 90 0 L 92.318359 7.7011719 L 100 7.6386719 L 107.68164 7.7011719 L 110 0 L 90 0 z M 110 0 L 112.31836 7.7011719 L 120 7.6386719 L 127.68164 7.7011719 L 130 0 L 110 0 z M 130 0 L 132.31836 7.7011719 L 140 7.6386719 L 147.68164 7.7011719 L 150 0 L 130 0 z M 150 0 L 152.31836 7.7011719 L 160 7.6386719 L 167.68164 7.7011719 L 170 0 L 150 0 z M 170 0 L 172.31836 7.7011719 L 180 7.6386719 L 187.68164 7.7011719 L 190 0 L 170 0 z M 190 0 L 192.31836 7.7011719 L 200 7.6386719 L 200 0 L 190 0 z M 200 7.6386719 L 193.75 12.337891 L 196.17969 20 L 200 20 L 200 7.6386719 z M 196.17969 20 L 190 15.201172 L 183.82031 20 L 196.17969 20 z M 183.82031 20 L 186.25 12.337891 L 180 7.6386719 L 173.75 12.337891 L 176.17969 20 L 183.82031 20 z M 176.17969 20 L 170 15.201172 L 163.82031 20 L 176.17969 20 z M 163.82031 20 L 166.25 12.337891 L 160 7.6386719 L 153.75 12.337891 L 156.17969 20 L 163.82031 20 z M 156.17969 20 L 150 15.201172 L 143.82031 20 L 156.17969 20 z M 143.82031 20 L 146.25 12.337891 L 140 7.6386719 L 133.75 12.337891 L 136.17969 20 L 143.82031 20 z M 136.17969 20 L 130 15.201172 L 123.82031 20 L 136.17969 20 z M 123.82031 20 L 126.25 12.337891 L 120 7.6386719 L 113.75 12.337891 L 116.17969 20 L 123.82031 20 z M 116.17969 20 L 110 15.201172 L 103.82031 20 L 116.17969 20 z M 103.82031 20 L 106.25 12.337891 L 100 7.6386719 L 93.75 12.337891 L 96.179688 20 L 103.82031 20 z M 96.179688 20 L 90 15.201172 L 83.820312 20 L 96.179688 20 z M 83.820312 20 L 86.25 12.337891 L 80 7.6386719 L 73.75 12.337891 L 76.179688 20 L 83.820312 20 z M 76.179688 20 L 70 15.201172 L 63.820312 20 L 76.179688 20 z M 63.820312 20 L 66.25 12.337891 L 60 7.6386719 L 53.75 12.337891 L 56.179688 20 L 63.820312 20 z M 56.179688 20 L 50 15.201172 L 43.820312 20 L 56.179688 20 z M 43.820312 20 L 46.25 12.337891 L 40 7.6386719 L 33.75 12.337891 L 36.179688 20 L 43.820312 20 z M 36.179688 20 L 30 15.201172 L 23.820312 20 L 36.179688 20 z M 23.820312 20 L 26.25 12.337891 L 20 7.6386719 L 13.75 12.337891 L 16.179688 20 L 23.820312 20 z M 16.179688 20 L 10 15.201172 L 3.8203125 20 L 16.179688 20 z M 3.8203125 20 L 6.25 12.337891 L 0 7.6386719 L 0 20 L 3.8203125 20 z "
       transform="matrix(0.26458333,0,0,0.26458333,0,291.70832)"
       id="path3686" />
  </g>
</svg>
